<svg width="48" height="48" viewBox="0 0 48 48" fill="none" xmlns="http://www.w3.org/2000/svg">
<path d="M1.36084 11.9321L21.0092 0.743546C22.7095 -0.247849 24.835 -0.247849 26.5825 0.743546L46.5615 11.9793C47.5534 12.5459 48.1202 13.6789 47.9785 14.8119L47.3644 19.1552C45.5224 32.0905 36.8318 42.9958 24.646 47.6695C24.1265 47.8584 23.5125 47.8584 22.9929 47.6695C10.9489 42.9486 2.39994 32.0905 0.65237 19.2968L0.0383649 14.7647C-0.150562 13.6317 0.36898 12.4986 1.36084 11.9321Z" fill="#185195"/>
<path d="M37.3986 22.271L24.1737 34.5926C22.3317 36.2921 19.4506 36.1977 17.7975 34.3565L14.6802 31.0047L31.2585 15.5672C33.1005 13.8677 35.9816 13.9621 37.6347 15.8033C39.3351 17.6917 39.2406 20.5714 37.3986 22.271Z" fill="#113969"/>
<path d="M30.8333 28.4082L24.2209 34.5926C22.3789 36.2921 19.4978 36.1977 17.8447 34.3565L11.6573 27.7472C9.95696 25.9061 10.0514 23.0263 11.8935 21.374C12.7909 20.5242 13.9717 20.1465 15.1524 20.1937C16.286 20.241 17.4196 20.713 18.2697 21.61L21.3398 24.9147L24.4571 28.2665C26.1102 30.0605 28.9913 30.1549 30.8333 28.4082Z" fill="#113969"/>
<path opacity="0.4" d="M47.9313 14.9535L47.3173 19.2968C45.4753 32.2321 36.7847 43.1374 24.5989 47.8584C24.0794 48.0472 23.4653 48.0472 22.9458 47.8584C15.1998 44.837 8.87078 39.2663 4.90332 32.2321C8.91801 38.3693 14.7747 43.2319 21.8122 45.97C22.3318 46.2061 22.9458 46.2061 23.4653 45.97C35.6511 41.2491 44.3417 30.3437 46.1838 17.4556L46.7978 13.1124C46.845 12.8291 46.845 12.5931 46.7978 12.3098C47.6479 12.8763 48.073 13.9149 47.9313 14.9535Z" fill="url(#paint0_linear_2297_1408)"/>
<path d="M36.7375 21.0435L23.5126 33.3652C21.6706 35.0647 18.7895 34.9703 17.1363 33.1291L14.019 29.7773L30.5974 14.3398C32.4394 12.6403 35.3205 12.7347 36.9736 14.5759C38.674 16.5115 38.5795 19.3912 36.7375 21.0435Z" fill="white"/>
<path d="M30.1722 27.228L23.5598 33.4124C21.7177 35.1119 18.8366 35.0175 17.1835 33.1763L10.9962 26.567C9.29582 24.7259 9.39029 21.8461 11.2323 20.1938C12.1297 19.344 13.3105 18.9664 14.4913 19.0136C15.6248 19.0608 16.7584 19.5329 17.6086 20.4298L20.6786 23.7345L23.7959 27.0864C25.449 28.8331 28.3302 28.9747 30.1722 27.228Z" fill="white"/>
<defs>
<linearGradient id="paint0_linear_2297_1408" x1="24.7561" y1="30.5367" x2="33.433" y2="13.5932" gradientUnits="userSpaceOnUse">
<stop stop-color="#113969"/>
<stop offset="1" stop-color="#113969" stop-opacity="0"/>
</linearGradient>
</defs>
</svg>
